<?xml version="1.0" encoding="utf-8"?>
<!-- Generator: Adobe Illustrator 20.0.0, SVG Export Plug-In . SVG Version: 6.00 Build 0)  -->
<svg version="1.1" id="Layer_1" xmlns="http://www.w3.org/2000/svg" xmlns:xlink="http://www.w3.org/1999/xlink" x="0px" y="0px"
	 viewBox="0 0 500 500" style="enable-background:new 0 0 500 500;" xml:space="preserve">
<style type="text/css">
	.st0{fill:none;stroke:#000000;stroke-width:15;stroke-miterlimit:10;}
	.st1{fill:#FFFFFF;}
	.st2{fill:none;stroke:#000000;stroke-width:10;stroke-miterlimit:10;}
	.st3{fill:#FFFFFF;stroke:#FFFFFF;stroke-miterlimit:10;}
	.st4{fill:none;}
</style>
<g id="CIRCLE_x26_TEXT">
	<circle id="XMLID_391_" class="st0" cx="246.6" cy="253.1" r="200.6"/>
	<g id="XMLID_395_">
		<g id="XMLID_450_">
			<path id="XMLID_564_" d="M90.4,198.7c2.8,0.9,4.6,2.4,5.5,4.4s0.9,4.5,0.2,7.4c-0.1,0.6-0.3,1.1-0.5,1.6s-0.4,1-0.6,1.4
				c-0.8-0.2-1.3-0.3-2.1-0.5c0.5-0.9,1-1.9,1.3-3c0.5-2.1,0.4-3.8-0.3-5c-0.8-1.3-2.3-2.3-4.5-2.9c-5.9-1.8-8.9-2.7-14.8-4.5
				c0.4-1.5,0.7-2.2,1.1-3.7C81.6,195.8,84.5,196.8,90.4,198.7z"/>
			<path id="XMLID_561_" d="M107,180.3c-1,2.2-2.2,4.1-3.6,5.6c-1.3,1.6-2.8,2.8-4.3,3.7s-3.1,1.5-4.7,1.7s-3.3,0-4.8-0.6
				c-1.7-0.7-3.2-1.6-4.3-3c-1.2-1.3-2-3-2.4-4.9s-0.5-4.1-0.1-6.5s1.2-5,2.5-7.7c1.2-2.5,2.6-4.5,4.1-6.1s3.1-2.8,4.8-3.5
				c1.7-0.7,3.3-1,4.9-0.9s3.2,0.7,4.6,1.6c1.5,1,2.8,2.2,3.7,3.6c1,1.4,1.6,3,1.9,4.8c0.3,1.7,0.3,3.6-0.1,5.7
				C108.9,175.8,108.1,178,107,180.3z M86.9,169.9c-1,2.1-1.6,4.1-1.8,6c-0.2,1.9-0.1,3.6,0.3,5.1s1.1,2.8,2,3.9
				c0.9,1.1,2.1,1.9,3.4,2.4c1.2,0.5,2.5,0.7,3.9,0.7c1.3,0,2.7-0.4,3.9-1c1.3-0.6,2.5-1.6,3.6-2.8c1.2-1.2,2.2-2.8,3.1-4.7
				s1.5-3.7,1.8-5.3c0.3-1.7,0.3-3.2,0-4.6c-0.3-1.4-0.8-2.7-1.6-3.8c-0.8-1.1-1.9-2.1-3.1-2.9c-1.2-0.7-2.5-1.2-3.8-1.4
				s-2.7-0.1-4,0.4c-1.4,0.5-2.7,1.4-4,2.7C89.2,165.9,88,167.7,86.9,169.9z"/>
			<path id="XMLID_559_" d="M130,144.9c-3.3-3-5-4.5-8.3-7.5c-4.8,5.5-7.1,8.4-11.4,14.5c3.6,2.6,5.4,3.9,9.1,6.5
				c-0.7,1-1,1.5-1.7,2.5c-7.9-5.4-11.8-8.1-19.7-13.6c0.8-1.1,1.2-1.7,1.9-2.8c3.5,2.5,5.2,3.8,8.7,6.3c4.3-6.2,6.7-9.1,11.6-14.7
				c-3.2-2.9-4.8-4.3-8-7.2c0.9-1,1.3-1.5,2.2-2.5c7,6.5,10.5,9.8,17.5,16.3C131.1,143.6,130.7,144,130,144.9z"/>
			<path id="XMLID_557_" d="M153.5,123.5c-10-2.2-15.3-3-26.1-3.5c-0.3,0-0.7,0-1-0.1c-0.3,0-0.7-0.1-0.9-0.2c0,0-0.1,0-0.1,0.1
				c0.2,0.1,0.4,0.3,0.6,0.6c0.3,0.2,0.6,0.6,0.9,1c5.1,5.4,7.6,8.1,12.6,13.6c-0.8,0.8-1.2,1.2-2.1,2c-6.7-6.9-10-10.3-16.6-17.2
				c1-1,1.6-1.5,2.6-2.5c10.8,0.3,16.1,0.9,26.1,3c0.4,0.1,0.7,0.2,1.1,0.3c0.3,0.1,0.6,0.2,0.9,0.2c0,0,0.1,0,0.1-0.1
				c-0.3-0.3-0.5-0.6-0.8-0.9c-0.3-0.4-0.6-0.7-0.9-1.2c-4.2-5.7-6.3-8.6-10.5-14.3c1.1-0.8,1.6-1.1,2.7-1.9
				c5.5,7.8,8.3,11.7,13.8,19.5C154.9,122.5,154.5,122.8,153.5,123.5z"/>
			<path id="XMLID_555_" d="M159.5,115.2c0.6,0,1.2-0.1,1.9-0.2s1.3-0.3,1.9-0.5c0.6-0.2,1.3-0.4,1.9-0.7c0.6-0.3,1.2-0.5,1.7-0.8
				c2-1.1,3.3-2.2,4-3.4c0.7-1.1,0.7-2.3,0.1-3.5c-0.3-0.6-0.7-1-1.1-1.3c-0.5-0.3-1.1-0.5-1.8-0.6s-1.6-0.1-2.6,0s-2.2,0.2-3.5,0.4
				c-1.5,0.2-2.8,0.3-3.9,0.4c-1.1,0.1-2.1,0.1-2.9,0c-0.8-0.1-1.5-0.3-2.1-0.7c-0.6-0.3-1.1-0.8-1.5-1.5c-0.5-0.8-0.8-1.7-0.7-2.7
				s0.4-1.9,1-2.9s1.4-1.9,2.4-2.9c1-0.9,2.2-1.8,3.6-2.5c2.4-1.3,4.5-2.1,6.4-2.5c0.4,0.9,0.7,1.3,1.1,2.2
				c-2.2,0.2-4.5,0.9-6.9,2.2c-0.9,0.5-1.7,1-2.4,1.6s-1.2,1.2-1.7,1.8c-0.4,0.6-0.6,1.3-0.7,1.9c-0.1,0.6,0.1,1.2,0.4,1.8
				c0.3,0.5,0.7,0.9,1.2,1.2c0.5,0.3,1,0.4,1.7,0.5s1.5,0,2.5-0.1s2.2-0.3,3.6-0.4c1.5-0.2,2.7-0.3,3.9-0.3c1.1,0,2.1,0.1,3,0.3
				c0.8,0.2,1.5,0.5,2.1,0.9s1,1,1.4,1.6c0.5,0.9,0.7,1.9,0.6,2.8s-0.4,1.8-1,2.7c-0.5,0.9-1.3,1.7-2.2,2.5s-2,1.6-3.3,2.3
				c-0.4,0.2-0.9,0.5-1.5,0.8s-1.2,0.5-1.9,0.8c-0.6,0.2-1.3,0.5-1.9,0.6c-0.6,0.2-1.1,0.3-1.5,0.3
				C160.4,116.5,160.1,116.1,159.5,115.2z"/>
			<path id="XMLID_523_" d="M193.4,103.3c-2,0.7-3.9,1.1-5.8,1.1c-1.8,0-3.5-0.2-5.1-0.7s-3-1.3-4.2-2.4s-2.2-2.4-2.9-3.9
				c-0.8-1.7-1.2-3.4-1.2-5.1s0.4-3.3,1.3-4.9c0.8-1.6,2.1-3,3.8-4.3s3.8-2.4,6.3-3.3c2.3-0.8,4.5-1.2,6.5-1.2s3.8,0.4,5.4,1
				c1.6,0.7,2.9,1.6,4,2.9c1.1,1.2,1.8,2.7,2.2,4.4c0.5,1.7,0.6,3.4,0.3,5.1c-0.2,1.7-0.8,3.2-1.6,4.6c-0.9,1.4-2,2.7-3.5,3.8
				C197.3,101.6,195.5,102.5,193.4,103.3z M185.9,81.9c-1.9,0.7-3.6,1.6-4.8,2.6c-1.3,1.1-2.2,2.3-2.9,3.5c-0.6,1.3-0.9,2.6-0.9,4
				s0.3,2.7,0.9,4c0.5,1.2,1.3,2.3,2.2,3.3c0.9,0.9,2,1.7,3.3,2.2c1.2,0.5,2.6,0.8,4.1,0.8s3.2-0.3,4.9-0.9c1.8-0.6,3.3-1.4,4.5-2.3
				s2.1-1.9,2.8-3.1c0.7-1.1,1.1-2.4,1.2-3.7c0.1-1.3,0-2.7-0.4-4.2c-0.4-1.3-1-2.6-1.8-3.6c-0.8-1.1-1.8-1.9-3-2.6
				c-1.2-0.6-2.7-1-4.4-1C189.9,80.8,188,81.2,185.9,81.9z"/>
			<path id="XMLID_498_" d="M232.7,94.5c-7.3-7.1-11.3-10.4-20.1-16.5c-0.3-0.2-0.6-0.4-0.8-0.6c-0.3-0.2-0.5-0.4-0.7-0.6H211
				c0.1,0.2,0.2,0.5,0.2,0.8c0.1,0.3,0.2,0.8,0.3,1.3c1.5,7.2,2.2,10.8,3.7,18.1c-1.1,0.2-1.6,0.3-2.7,0.5
				c-2.1-9.3-3.1-13.9-5.2-23.2c1.4-0.3,2.1-0.4,3.4-0.7c8.9,6,12.9,9.3,20.3,16.2c0.3,0.3,0.5,0.5,0.8,0.8c0.2,0.2,0.4,0.5,0.6,0.7
				h0.1c-0.1-0.4-0.2-0.8-0.2-1.2c-0.1-0.4-0.1-0.9-0.2-1.5c-0.6-7-0.9-10.6-1.6-17.6c1.3-0.1,1.9-0.2,3.2-0.2
				c0.7,9.5,1,14.2,1.7,23.7C234.4,94.4,233.8,94.4,232.7,94.5z"/>
			<path id="XMLID_494_" d="M276.4,96.6c-1.2-1.4-1.8-2.1-3.1-3.4c-3.1,1.7-6.5,2.4-10.3,2c-1.4-0.1-2.7-0.4-3.8-0.8
				c-1.1-0.4-2.1-0.9-2.9-1.5c-0.8-0.6-1.4-1.3-1.8-2.1c-0.4-0.8-0.6-1.7-0.5-2.6c0.1-2.9,2.6-5.2,7.7-6.5c-2.2-2.3-3.3-4.3-3.2-5.9
				c0.1-0.8,0.3-1.5,0.8-2.2c0.5-0.6,1.1-1.2,1.9-1.6s1.8-0.7,2.8-0.9c1.1-0.2,2.3-0.2,3.5-0.1s2.2,0.4,3.1,0.7
				c0.9,0.4,1.7,0.8,2.3,1.3c0.6,0.5,1,1.1,1.3,1.7s0.3,1.3,0.2,2c-0.1,0.7-0.4,1.4-0.7,2c-0.4,0.6-0.9,1.1-1.6,1.5
				s-1.5,0.8-2.5,1.2c-1,0.3-2.2,0.7-3.6,1c1.2,1.2,2.5,2.4,3.8,3.7c1.3,1.3,2.7,2.7,4.1,4.2c0.5-0.4,0.9-0.8,1.3-1.3s0.8-1,1.1-1.5
				c0.3-0.5,0.6-1.1,0.9-1.7c0.2-0.6,0.4-1.2,0.6-1.7c1.1,0.2,1.6,0.3,2.7,0.5c-0.7,2.9-2.5,5.3-5.2,7.3c0.7,0.7,1.4,1.5,2.2,2.4
				s1.7,1.9,2.6,3C278.6,97.1,277.9,96.9,276.4,96.6z M271.9,91.6c-1.5-1.5-2.9-3-4.3-4.4s-2.8-2.8-4.2-4.1
				c-2.2,0.5-3.8,1.2-4.8,2.1c-1,0.8-1.6,1.8-1.6,3c0,0.7,0.1,1.3,0.4,1.9s0.7,1.1,1.3,1.6c0.6,0.4,1.2,0.8,2.1,1.1
				c0.8,0.3,1.7,0.5,2.7,0.6C266.4,93.6,269.2,93.1,271.9,91.6z M264.5,80.9c1.2-0.3,2.2-0.6,3.1-0.8c0.9-0.3,1.6-0.6,2.1-1
				c0.6-0.4,1-0.7,1.3-1.2c0.3-0.4,0.5-0.9,0.6-1.4s0-0.9-0.2-1.4c-0.2-0.4-0.5-0.8-0.8-1.2s-0.8-0.6-1.4-0.9
				c-0.5-0.2-1.1-0.4-1.8-0.5c-0.8-0.1-1.6-0.1-2.3,0c-0.7,0.1-1.3,0.3-1.8,0.6c-0.5,0.3-0.9,0.7-1.2,1.1c-0.3,0.4-0.5,0.9-0.5,1.5
				C261.5,77.2,262.5,78.9,264.5,80.9z"/>
			<path id="XMLID_492_" d="M319.4,111.1c-1-0.5-1.6-0.8-2.6-1.3c0.9-7.5,1.2-11.2,1.5-18.8c0-0.5,0.1-0.9,0.1-1.3
				c0.1-0.4,0.2-0.8,0.3-1.1h-0.1c-0.3,0.6-0.8,1.2-1.6,1.8c-5.6,5.3-8.2,8.1-13.3,13.8c-1.1-0.4-1.6-0.6-2.7-1
				c0-10.1-0.3-15.2-1.3-25.5c1.4,0.4,2,0.6,3.4,1c0.5,8,0.7,12,0.6,19.9c0,0.4,0,0.8-0.1,1.2c0,0.4-0.1,0.7-0.2,1.1c0,0,0,0,0.1,0
				c0.3-0.4,0.7-1.1,1.5-1.9c5.4-6,8.3-8.9,14.2-14.5c0.9,0.4,1.4,0.6,2.3,1c-0.4,8.1-0.7,12.1-1.7,20c-0.1,0.4-0.1,0.8-0.2,1.1
				c-0.1,0.4-0.2,0.7-0.3,1c0,0,0,0,0.1,0c0.1-0.2,0.3-0.4,0.5-0.6s0.4-0.4,0.7-0.7c6-5.7,9.1-8.4,15.5-13.6c1.2,0.7,1.8,1,3,1.7
				C330.9,100.9,326.9,104.2,319.4,111.1z"/>
			<path id="XMLID_490_" d="M343.8,115.4c-2.1,2.9-3.2,4.4-5.3,7.3c-0.9-0.7-1.4-1-2.3-1.6c2-2.9,3.1-4.4,5.1-7.3
				c0.1-7.2,0-10.8-0.6-18.2c1.3,0.7,1.9,1.1,3.1,1.9c0.3,5.4,0.3,8.2,0.2,13.5c0,0.2,0,0.4,0,0.7c0,0.3-0.1,0.7-0.1,1.1
				c0,0,0,0,0.1,0c0.2-0.1,0.4-0.2,0.7-0.4c0.3-0.1,0.6-0.2,1-0.4c5.2-1.8,7.8-2.7,13.2-4.1c1.1,0.9,1.6,1.3,2.7,2.2
				C354.3,112,350.7,113,343.8,115.4z"/>
			<path id="XMLID_488_" d="M368.9,151.7c5.2-4.1,7.7-6.2,12.9-10.3c0.7-0.5,1.8-1.3,3.4-2.3c0,0,0,0-0.1-0.1
				c-0.5,0.1-1,0.2-1.4,0.3s-0.7,0.1-1,0.2c-8.8,0.8-13.1,1.5-21.4,3.3c-0.3-0.4-0.5-0.5-0.8-0.9c2.3-8.2,3.3-12.4,4.7-21.1
				c0.1-0.6,0.4-1.5,0.8-2.5c0,0,0,0-0.1-0.1c-0.3,0.4-0.7,0.9-1.1,1.4s-0.9,1.1-1.4,1.6c-4.5,5-6.7,7.4-11.2,12.4
				c-0.8-0.7-1.2-1.1-2.1-1.8c6.3-7.2,9.5-10.8,15.8-18c1.2,1,1.7,1.5,2.9,2.6c-1.3,8.6-2.2,12.8-4.4,20.9c-0.1,0.4-0.2,0.9-0.4,1.3
				c-0.1,0.4-0.3,0.9-0.5,1.3l0.1,0.1c0.5-0.2,0.9-0.3,1.3-0.4c0.4-0.1,0.8-0.2,1.3-0.3c8.3-1.6,12.5-2.2,21.2-2.8
				c0.9,1.2,1.4,1.8,2.3,3c-7.6,5.9-11.4,8.8-18.9,14.6C370,153,369.6,152.6,368.9,151.7z"/>
			<path id="XMLID_485_" d="M386.1,179.1c1.9-2.6,2.8-3.9,4.6-6.6c-2.7-5.3-4.2-7.9-7.3-12.8c-3.1,0.3-4.7,0.5-7.8,1
				c-0.7-1.1-1.1-1.7-1.9-2.7c10.6-1.6,16-2.1,27.1-2.1c0.7,1.2,1.1,1.8,1.8,3.1c-5.4,9.8-8.4,14.5-14.9,23.3
				C387,181,386.7,180.4,386.1,179.1z M398.3,160.2c0.1-0.2,0.3-0.4,0.4-0.7c0.2-0.3,0.4-0.5,0.7-0.8c0,0,0-0.1-0.1-0.1
				c-0.4,0.1-0.7,0.2-1,0.2s-0.6,0-0.8,0.1c-4.8,0.1-7.2,0.3-12,0.7c2.7,4.3,3.9,6.5,6.3,11C394.6,166.5,395.9,164.4,398.3,160.2z"
				/>
			<path id="XMLID_483_" d="M397.4,210.1c4.5-8.2,8.6-17.1,11.7-25.9c0.1-0.3,0.3-0.7,0.4-1s0.3-0.6,0.5-0.9c0-0.1,0-0.1-0.1-0.1
				c-0.2,0.1-0.4,0.2-0.7,0.4c-0.3,0.2-0.7,0.3-1.2,0.5c-6.8,2.8-10.2,4.2-17,7.1c-0.5-1.2-0.7-1.8-1.2-3c8.7-3.8,13.1-5.7,21.8-9.6
				c0.6,1.5,0.9,2.2,1.5,3.8c-3,8.9-6.8,17.8-11.2,26.1c-0.2,0.4-0.4,0.7-0.6,1s-0.4,0.6-0.5,0.9c0,0.1,0,0.1,0,0.1
				c0.3-0.2,0.7-0.3,1.1-0.5c0.4-0.1,0.9-0.3,1.4-0.4c6.8-1.8,10.3-2.7,17.1-4.5c0.4,1.5,0.6,2.3,1,3.8c-9.3,2.2-13.9,3.3-23.1,5.6
				C398,212.1,397.8,211.5,397.4,210.1z"/>
		</g>
	</g>
	<g id="XMLID_392_">
		<g id="XMLID_451_">
			<path id="XMLID_551_" d="M158.9,414.8c0.2-4.2,0.4-6.2,0.8-10.3c-5.9-3.6-8.8-5.6-14.4-9.9c-3.7,1.9-5.5,2.8-9.3,4.5
				c-1.4-1.1-2.1-1.7-3.5-2.9c10.9-4.7,20.8-9.7,31.2-15.6c1.1,0.8,1.6,1.1,2.7,1.9c-1.9,11.7-3.1,22.7-3.7,34.5
				C161.2,416.1,160.4,415.6,158.9,414.8z M162.5,386.3c0.1-0.3,0.1-0.6,0.2-1c0.1-0.4,0.3-0.8,0.4-1.2c0,0,0,0-0.1-0.1
				c-0.3,0.3-0.7,0.6-1,0.8c-0.3,0.2-0.6,0.4-0.9,0.6c-5.1,3.3-7.8,4.8-13.3,7.7c4.7,3.6,7.1,5.2,12.1,8.3
				C160.8,395.4,161.3,392.3,162.5,386.3z"/>
			<path id="XMLID_549_" d="M178.7,424.6c-1.4-0.6-2.1-0.9-3.5-1.5c-0.1-11.7,0.4-22.8,1.5-34.4c1.3,0.7,1.9,1,3.2,1.7
				c-1.2,10.7-1.4,16.2-1.3,27.3c0,0.5,0,1-0.1,1.5c0,0.5-0.1,1-0.2,1.5h0.1c0.3-0.3,0.6-0.7,0.9-1.1c0.3-0.4,0.8-0.8,1.2-1.2
				c8.3-7.4,12.2-11.3,19.2-19.5c1.3,0.4,1.9,0.7,3.3,1.1C195.2,408.8,187.5,416.6,178.7,424.6z"/>
			<path id="XMLID_547_" d="M203.2,432.8c-1.5-0.4-2.2-0.6-3.7-1c2.8-10.1,5.6-20.2,8.5-30.4c1.2,0.3,1.8,0.5,3,0.8
				C208.4,412.4,205.8,422.6,203.2,432.8z"/>
			<path id="XMLID_544_" d="M240.2,438.1c-1.7-3.8-2.5-5.7-4-9.5c-6.7-0.4-10-0.8-16.6-1.9c-2.3,3.4-3.4,5.1-5.9,8.4
				c-1.7-0.3-2.5-0.5-4.2-0.8c7.1-9.4,13.3-18.6,19.4-28.7c1.3,0.2,1.9,0.2,3.1,0.4c3.6,11.2,7.6,21.5,12.4,32.2
				C242.8,438.2,241.9,438.2,240.2,438.1z M230.5,411.4c-0.1-0.3-0.2-0.6-0.2-1c-0.1-0.4-0.1-0.8-0.2-1.3H230
				c-0.1,0.5-0.3,0.9-0.5,1.2c-0.2,0.4-0.3,0.7-0.5,0.9c-2.9,5.3-4.5,7.9-7.8,13.1c5.6,0.9,8.4,1.2,14,1.6
				C233.1,420.1,232.2,417.2,230.5,411.4z"/>
			<path id="XMLID_542_" d="M256.6,409c0.7,9.6,1.3,19.2,2,28.8c-1.5,0.1-2.3,0.1-3.8,0.2c-0.4-9.6-0.9-19.2-1.3-28.8
				c-4,0.2-5.9,0.2-9.9,0.1c0-1.1,0-1.6,0.1-2.7c9,0.2,13.6-0.1,22.6-1.3c0.1,1.1,0.2,1.6,0.4,2.7
				C262.5,408.6,260.5,408.8,256.6,409z"/>
			<path id="XMLID_540_" d="M280.8,434.9c-1.5,0.3-2.3,0.4-3.8,0.7c-1.8-10.3-3.6-20.7-5.5-31c1.2-0.2,1.9-0.3,3.1-0.6
				C276.7,414.2,278.8,424.5,280.8,434.9z"/>
			<path id="XMLID_537_" d="M307.7,427.9c-2.8,1-5.5,1.5-8.1,1.5c-2.5-0.1-4.8-0.6-6.7-1.5c-2-0.9-3.6-2.3-4.9-3.9
				c-1.3-1.7-2.2-3.6-2.7-5.8c-0.6-2.4-0.7-4.7-0.5-6.8c0.3-2.2,0.9-4.1,1.9-5.9s2.4-3.4,4.1-4.8s3.8-2.5,6.2-3.4
				c2.3-0.8,4.4-1.3,6.5-1.3s4.1,0.3,5.9,1c1.9,0.7,3.6,1.7,5.1,3.1c1.6,1.4,2.9,3.1,3.9,5.1c1.1,2.1,1.7,4.3,1.9,6.5
				c0.2,2.2-0.2,4.3-1,6.4c-0.9,2.1-2.3,4-4.2,5.7C313.1,425.3,310.7,426.8,307.7,427.9z M297.5,399.7c-2,0.7-3.6,1.7-4.9,2.9
				c-1.3,1.2-2.4,2.5-3.1,4.1c-0.7,1.5-1.2,3.1-1.3,4.9c-0.1,1.8,0,3.6,0.5,5.4c0.5,1.7,1.2,3.3,2.2,4.7c1,1.4,2.3,2.6,3.8,3.4
				c1.5,0.9,3.3,1.4,5.3,1.5s4.3-0.2,6.7-1.1s4.4-2,5.9-3.4s2.6-2.9,3.3-4.5c0.7-1.6,0.9-3.3,0.8-5.1c-0.1-1.8-0.6-3.6-1.5-5.3
				c-0.8-1.7-1.8-3.1-3-4.4s-2.5-2.2-4-2.9s-3.1-1-4.9-1.1C301.6,398.5,299.6,398.9,297.5,399.7z"/>
			<path id="XMLID_530_" d="M357.4,398.8c-11.5-1.9-21.6-4.3-32.7-7.8c-0.4-0.1-0.8-0.3-1.2-0.5c-0.4-0.2-0.7-0.3-1-0.5
				c0,0-0.1,0-0.1,0.1c0.2,0.2,0.4,0.5,0.6,0.9c0.3,0.4,0.6,0.9,0.9,1.5c5,8.4,7.5,12.6,12.5,21c-1.4,0.8-2,1.2-3.4,2
				c-5.2-9.1-10.4-18.3-15.5-27.4c1.2-0.7,1.9-1.1,3.1-1.8c10.2,4.2,20.6,6.4,31.4,8.5c0.5,0.1,1,0.2,1.4,0.3
				c0.4,0.1,0.8,0.2,1.2,0.2l0.1-0.1c-0.4-0.3-0.8-0.7-1.2-1.1c-0.4-0.4-0.8-0.9-1.3-1.5c-5.9-7.3-8.9-10.9-14.8-18.2
				c1-0.8,1.6-1.3,2.6-2.1c6.8,8,13.6,16,20.5,24C359.3,397.2,358.7,397.8,357.4,398.8z"/>
		</g>
	</g>
</g>
<g id="PLANE">
	<g id="XMLID_408_">
		<g id="XMLID_440_">
			<path id="XMLID_444_" class="st1" d="M258.7,264.8c-10.3,2.1-20.6,3.4-31.1,3.9c-3.2,0.2-3.2,5.2,0,5c10.9-0.6,21.7-1.9,32.4-4.1
				C263.2,269,261.9,264.2,258.7,264.8L258.7,264.8z"/>
		</g>
	</g>
	<g id="XMLID_422_">
		<g id="XMLID_511_">
			<path id="XMLID_515_" class="st1" d="M244,343c7.6,0,14-6.4,14-14s-6.4-14-14-14s-14,6.4-14,14S236.4,343,244,343L244,343z"/>
		</g>
	</g>
	<g id="XMLID_423_">
		<g id="XMLID_518_">
			<path id="XMLID_522_" class="st1" d="M245.3,345.7c7.6,0,14-6.4,14-14s-6.4-14-14-14s-14,6.4-14,14
				C231.3,339.3,237.7,345.7,245.3,345.7L245.3,345.7z"/>
		</g>
	</g>
	<g id="XMLID_425_">
		<g id="XMLID_532_">
			<path id="XMLID_536_" class="st1" d="M249,344.8c16.1,0,16.1-25,0-25S232.9,344.8,249,344.8L249,344.8z"/>
		</g>
	</g>
	<rect id="XMLID_509_" x="251.4" y="132.8" class="st1" width="0.6" height="1.9"/>
	<g id="XMLID_439_">
		<path id="XMLID_406_" class="st2" d="M246.6,120.8c0,0,11.9-2.2,15.2,33.7c0,0,1.1,43.8,10.1,67.4s79.8,62.9,116.9,68.5
			c0,0-11.2,9-15.7,31.5c0,0-112.4-34.8-123.1,61.8L246.6,120.8z"/>
		<path id="XMLID_407_" class="st2" d="M245.6,120.6c0,0-11.9-2.2-15.2,33.7c0,0-1.1,43.8-10.1,67.4s-79.8,62.9-116.9,68.5
			c0,0,11.2,9,15.7,31.5c0,0,112.4-34.8,123.1,61.8L245.6,120.6z"/>
		<path id="XMLID_420_" d="M377.9,295.7c0,0,1.3-2,1.6-2.3s4.1,0.8,4.1,0.8L377.9,295.7z"/>
		<g id="XMLID_421_">
			<g id="XMLID_424_">
				<g id="XMLID_459_">
					<path id="XMLID_463_" class="st1" d="M246,346.3c7.6,0,14-6.4,14-14s-6.4-14-14-14s-14,6.4-14,14S238.4,346.3,246,346.3
						L246,346.3z"/>
				</g>
			</g>
			<rect id="XMLID_427_" x="238" y="147.3" class="st3" width="17" height="132"/>
			<rect id="XMLID_438_" x="239.7" y="135.3" class="st3" width="12.3" height="15.3"/>
			<rect id="XMLID_445_" x="240.4" y="130.6" class="st1" width="11.4" height="4"/>
			<rect id="XMLID_502_" x="240.2" y="134.4" class="st1" width="11.9" height="1.7"/>
			<rect id="XMLID_402_" x="234.2" y="275.8" class="st1" width="21.8" height="59.7"/>
			<rect id="XMLID_405_" x="237.6" y="342.3" class="st1" width="17.1" height="13.1"/>
		</g>
		<path id="XMLID_447_" class="st1" d="M240.2,132.8c0,0,6-18.9,11.9,0H240.2z"/>
		<path id="XMLID_448_" d="M240.6,134.1c0,0,5.7-6.3,11,0C251.6,134.1,247,130.4,240.6,134.1z"/>
	</g>
	<circle id="XMLID_449_" class="st4" cx="246.6" cy="252" r="211.7"/>
</g>
</svg>
