<?xml version="1.0" encoding="utf-8"?>
<!-- Generator: Adobe Illustrator 20.0.0, SVG Export Plug-In . SVG Version: 6.00 Build 0)  -->
<svg version="1.1" id="Layer_1" xmlns="http://www.w3.org/2000/svg" xmlns:xlink="http://www.w3.org/1999/xlink" x="0px" y="0px"
	 viewBox="0 0 500 500" style="enable-background:new 0 0 500 500;" xml:space="preserve">
<style type="text/css">
	.st0{fill:none;stroke:#333333;stroke-miterlimit:10;}
	.st1{fill:#FFFFFF;stroke:#333333;stroke-miterlimit:10;}
	.st2{fill:#FFFFFF;stroke:#000000;stroke-miterlimit:10;}
	.st3{fill:#333333;stroke:#333333;stroke-miterlimit:10;}
	.st4{fill:#333333;}
	.st5{font-family:'SegoeUI-Light';}
	.st6{font-size:113.6265px;}
</style>
<path id="XMLID_2_" class="st0" d="M1.2,199c0,0,222.5,79.1,497.6,0"/>
<circle id="XMLID_1_" class="st1" cx="251.8" cy="232.7" r="48.4"/>
<circle id="XMLID_3_" class="st2" cx="374.8" cy="245.2" r="18.4"/>
<circle id="XMLID_4_" class="st2" cx="127" cy="245.2" r="18.4"/>
<line id="XMLID_6_" class="st1" x1="251.8" y1="184.3" x2="251.8" y2="118.9"/>
<circle id="XMLID_5_" class="st3" cx="251.8" cy="238.9" r="12.1"/>
<path id="XMLID_7_" class="st3" d="M232.8,206.4h38C270.8,206.4,253.7,229.4,232.8,206.4z"/>
<g id="XMLID_23_">
	<g id="XMLID_11_">
		<path id="XMLID_9_" class="st0" d="M127,245.2c0,0-8.1-5.6,0-18.4"/>
		<path id="XMLID_8_" class="st0" d="M127.4,245.2c0,0-3.5-9.2,10.5-15.2"/>
	</g>
	<g id="XMLID_12_">
		<path id="XMLID_14_" class="st0" d="M127,245.1c0,0,3.2-9.4,17.8-5"/>
		<path id="XMLID_13_" class="st0" d="M127.1,245.5c0,0,7.9-5.9,17.5,6"/>
	</g>
	<g id="XMLID_15_">
		<path id="XMLID_17_" class="st0" d="M127.4,245.3c0,0,9.9,0.7,9.3,15.9"/>
		<path id="XMLID_16_" class="st0" d="M127,245.5c0,0,7.7,6.2-1.4,18.4"/>
	</g>
	<g id="XMLID_18_">
		<path id="XMLID_20_" class="st0" d="M126.7,245.4c0,0,2.5,9.5-12,14"/>
		<path id="XMLID_19_" class="st0" d="M126.4,245.2c0,0-3.3,9.3-17.8,4.7"/>
	</g>
	<g id="XMLID_10_">
		<path id="XMLID_22_" class="st0" d="M127.3,244.9c0,0-7.2,6.7-18-4"/>
		<path id="XMLID_21_" class="st0" d="M127.4,244.5c0,0-9.8,1.4-12.5-13.5"/>
	</g>
</g>
<g id="XMLID_24_">
	<g id="XMLID_37_">
		<path id="XMLID_39_" class="st0" d="M375,245.6c0,0-8.1,5.6,0,18.4"/>
		<path id="XMLID_38_" class="st0" d="M375.3,245.6c0,0-3.5,9.2,10.5,15.2"/>
	</g>
	<g id="XMLID_34_">
		<path id="XMLID_36_" class="st0" d="M375,245.7c0,0,3.2,9.4,17.8,5"/>
		<path id="XMLID_35_" class="st0" d="M375.1,245.3c0,0,7.9,5.9,17.5-6"/>
	</g>
	<g id="XMLID_31_">
		<path id="XMLID_33_" class="st0" d="M375.4,245.5c0,0,9.9-0.7,9.3-15.9"/>
		<path id="XMLID_32_" class="st0" d="M375,245.3c0,0,7.7-6.2-1.4-18.4"/>
	</g>
	<g id="XMLID_28_">
		<path id="XMLID_30_" class="st0" d="M374.6,245.4c0,0,2.5-9.5-12-14"/>
		<path id="XMLID_29_" class="st0" d="M374.3,245.6c0,0-3.3-9.3-17.8-4.7"/>
	</g>
	<g id="XMLID_25_">
		<path id="XMLID_27_" class="st0" d="M375.3,245.9c0,0-7.2-6.7-18,4"/>
		<path id="XMLID_26_" class="st0" d="M375.4,246.3c0,0-9.8-1.4-12.5,13.5"/>
	</g>
</g>
<text id="XMLID_40_" transform="matrix(1 0 0 1 125.1551 151.6155)" class="st4 st5 st6">J</text>
<text id="XMLID_41_" transform="matrix(1 0 0 1 330.7816 151.6155)" class="st4 st5 st6">W</text>
<text id="XMLID_42_" transform="matrix(1 0 0 1 213.4959 404.199)" class="st4 st5 st6">A</text>
</svg>
